<svg xmlns="http://www.w3.org/2000/svg" width="24" height="24" viewBox="0 0 24 24">
    <g fill="none" fill-rule="evenodd">
        <g fill="#1D1D20" transform="translate(1 2)">
            <path fill-rule="nonzero" d="M20.713 1.5L20.713 2.5 0.834 2.5 0.834 1.5z"/>
            <circle cx="2" cy="2" r="2"/>
            <circle cx="19.68" cy="2" r="2"/>
            <circle cx="10.84" cy="2" r="2"/>
        </g>
        <g fill="#1D1D20" transform="translate(1 18)">
            <path fill-rule="nonzero" d="M20.713 1.5L20.713 2.5 0.834 2.5 0.834 1.5z"/>
            <circle cx="2" cy="2" r="2"/>
            <circle cx="19.68" cy="2" r="2"/>
            <circle cx="10.84" cy="2" r="2"/>
        </g>
        <path fill="#000" fill-rule="nonzero" d="M9.123 14.54l1.89-4.959H9.906l-1.404 4.041-1.404-4.041H6l1.881 4.959h1.242zm4.583.081c.57 0 1.037-.135 1.4-.405s.544-.621.544-1.053c0-.348-.099-.626-.297-.832-.198-.207-.44-.35-.724-.428-.285-.078-.57-.144-.855-.198-.285-.054-.527-.138-.725-.252-.198-.114-.297-.271-.297-.473 0-.2.078-.363.234-.486.156-.123.372-.184.648-.184s.49.069.643.207c.154.138.239.33.257.576h1.053c-.024-.492-.205-.88-.544-1.165-.34-.286-.797-.428-1.373-.428s-1.041.146-1.395.437c-.354.29-.531.646-.531 1.066 0 .33.099.594.297.792.198.198.44.335.724.41.285.075.57.14.855.197.286.058.527.143.725.257.198.114.297.273.297.477 0 .204-.082.368-.247.49-.165.123-.387.185-.666.185-.28 0-.5-.069-.662-.207-.162-.138-.252-.33-.27-.576h-1.062c.036.51.231.903.585 1.179s.816.414 1.386.414zm3.647-.081c.174 0 .321-.057.441-.171.12-.12.18-.267.18-.441s-.06-.321-.18-.441-.267-.18-.441-.18-.32.06-.437.18c-.117.12-.175.265-.175.437 0 .17.058.316.175.436.117.12.263.18.437.18z"/>
    </g>
</svg>
