<svg xmlns="http://www.w3.org/2000/svg" width="24" height="24" viewBox="0 0 24 24">
    <g fill="none" fill-rule="evenodd">
        <path fill="#FFF" d="M12 24c6.627 0 12-5.373 12-12S18.627 0 12 0 0 5.373 0 12s5.373 12 12 12zm0-1C5.925 23 1 18.075 1 12S5.925 1 12 1s11 4.925 11 11-4.925 11-11 11z"/>
        <g stroke="#FFF" stroke-linecap="square">
            <path d="M.781.5L1.502.5M.781 4.5L1.502 4.5M.781 8.5L1.502 8.5M4.179.5L13.031.5M4.179 4.5L13.031 4.5M4.179 8.5L13.031 8.5" transform="matrix(-1 0 0 1 19 7.5)"/>
        </g>
    </g>
</svg>
