<svg xmlns="http://www.w3.org/2000/svg" width="25" height="24" viewBox="0 0 25 24">
    <g fill="none" fill-rule="evenodd" transform="translate(.5 .02)">
        <ellipse cx="12" cy="11.755" stroke="#1D1D20" rx="11.5" ry="11.255"/>
        <path stroke="#1D1D20" d="M12.043 14.008a2.823 2.823 0 0 1 2.827 2.82v.015"/>
        <path fill="#1D1D20" fill-rule="nonzero" d="M7.791 9.674c.778 0 1.493.265 2.06.71a2.24 2.24 0 0 0-.132 1.299 2.317 2.317 0 0 0-1.769-1.024l-.159-.006c-1.23 0-2.24.957-2.322 2.16l-.005.174-1 .025v-.028c0-1.765 1.39-3.21 3.144-3.305l.183-.005zm8.57 0a3.32 3.32 0 0 1 3.321 3.128l.005.2-1-.006v-.012a2.329 2.329 0 0 0-2.168-2.325l-.159-.006c-.37 0-.726.087-1.049.25a2.34 2.34 0 0 0-.95.885 2.279 2.279 0 0 0-.093-1.376 3.322 3.322 0 0 1 1.865-.73l.227-.008z"/>
        <path stroke="#1D1D20" d="M9.216 16.843v-.015a2.823 2.823 0 0 1 2.827-2.82"/>
        <ellipse cx="7.801" cy="7.406" fill="#1D1D20" rx="1.25" ry="1.224"/>
        <ellipse cx="16.371" cy="7.406" fill="#1D1D20" rx="1.25" ry="1.224"/>
        <ellipse cx="12.06" cy="11.25" fill="#1D1D20" rx="1.25" ry="1.224"/>
    </g>
</svg>
