<svg width="40" height="40" viewBox="0 0 40 40" fill="none" xmlns="http://www.w3.org/2000/svg">
<g clip-path="url(#clip0)">
<path fill-rule="evenodd" clip-rule="evenodd" d="M19.9996 21.25C19.6507 21.25 19.3177 21.1042 19.0811 20.8478L12.4144 13.6256C11.9462 13.1184 11.9778 12.3275 12.4851 11.8593C12.9923 11.391 13.7832 11.4227 14.2514 11.9299L18.7496 16.8029L18.7496 5C18.7496 4.30964 19.3092 3.75 19.9996 3.75C20.6899 3.75 21.2496 4.30964 21.2496 5L21.2496 16.8029L25.7477 11.9299C26.216 11.4227 27.0068 11.391 27.5141 11.8593C28.0214 12.3275 28.053 13.1184 27.5848 13.6256L20.9181 20.8478C20.6815 21.1042 20.3485 21.25 19.9996 21.25Z" fill="currentColor"/>
<path fill-rule="evenodd" clip-rule="evenodd" d="M20.2965 26.0169C17.9962 25.9533 16.0799 27.7666 16.0163 30.0669C15.9528 32.3672 17.766 34.2835 20.0663 34.3471C22.3666 34.4106 24.2829 32.5974 24.3465 30.2971C24.4101 27.9968 22.5968 26.0805 20.2965 26.0169ZM20.3656 23.5179C16.6851 23.4161 13.619 26.3173 13.5173 29.9978C13.4156 33.6783 16.3168 36.7444 19.9973 36.8461C23.6777 36.9478 26.7438 34.0466 26.8455 30.3662C26.9473 26.6857 24.0461 23.6196 20.3656 23.5179Z" fill="currentColor"/>
</g>
<defs>
<linearGradient id="paint0_linear" x1="19.9996" y1="21.25" x2="19.9996" y2="3.75" gradientUnits="userSpaceOnUse">
<stop stop-color="white"/>
<stop offset="0.367857" stop-color="white"/>
<stop offset="0.896429" stop-color="white" stop-opacity="0"/>
</linearGradient>
<clipPath id="clip0">
<rect width="40" height="40" fill="currentColor"/>
</clipPath>
</defs>
</svg>
