<svg width="40" height="40" viewBox="0 0 40 40" fill="none" xmlns="http://www.w3.org/2000/svg">
<path fill-rule="evenodd" clip-rule="evenodd" d="M23.5 9C24.8807 9 26 9.96539 26 11.1562V29.8438C26 31.0346 24.8807 32 23.5 32C22.1193 32 21 31.0346 21 29.8438L21 11.1563C21 9.96539 22.1193 9 23.5 9ZM18 19.25C18 18.0074 16.8807 17 15.5 17C14.1193 17 13 18.0074 13 19.25L13 29.75C13 30.9926 14.1193 32 15.5 32C16.8807 32 18 30.9926 18 29.75L18 19.25ZM10 25.25C10 24.0074 8.88071 23 7.5 23C6.11929 23 5 24.0074 5 25.25V29.75C5 30.9926 6.11929 32 7.5 32C8.88071 32 10 30.9926 10 29.75L10 25.25ZM34 17.125C34 15.9514 32.8807 15 31.5 15C30.1193 15 29 15.9514 29 17.125V29.875C29 31.0486 30.1193 32 31.5 32C32.8807 32 34 31.0486 34 29.875V17.125Z" fill="currentColor"/>
<defs>
<linearGradient id="paint0_linear" x1="37" y1="32" x2="2.5" y2="32" gradientUnits="userSpaceOnUse">
<stop stop-color="white"/>
<stop offset="1" stop-color="white" stop-opacity="0"/>
</linearGradient>
</defs>
</svg>
