<svg width="14" height="10" viewBox="0 0 14 10" fill="none" xmlns="http://www.w3.org/2000/svg">
<path fill-rule="evenodd" clip-rule="evenodd" d="M13.75 5C13.75 5.20933 13.6625 5.40913 13.5087 5.55111L9.17538 9.55111C8.87101 9.83206 8.39652 9.81308 8.11556 9.50871C7.83461 9.20435 7.85359 8.72985 8.15796 8.4489L11.0818 5.75L1 5.75C0.585787 5.75 0.25 5.41422 0.25 5C0.25 4.58579 0.585787 4.25 1 4.25L11.0818 4.25L8.15796 1.55111C7.85359 1.27015 7.83461 0.795659 8.11556 0.491293C8.39652 0.186928 8.87101 0.167948 9.17538 0.448901L13.5087 4.4489C13.6625 4.59088 13.75 4.79068 13.75 5Z" fill="white"/>
</svg>
