<svg width="14" height="10" viewBox="0 0 14 10" fill="none" xmlns="http://www.w3.org/2000/svg">
<path fill-rule="evenodd" clip-rule="evenodd" d="M0.25 5C0.25 4.79067 0.337478 4.59087 0.49129 4.44889L4.82462 0.448893C5.12899 0.167941 5.60348 0.18692 5.88444 0.491286C6.16539 0.795651 6.14641 1.27015 5.84204 1.5511L2.91824 4.25L13 4.25C13.4142 4.25 13.75 4.58578 13.75 5C13.75 5.41421 13.4142 5.75 13 5.75L2.91824 5.75L5.84204 8.44889C6.14641 8.72985 6.16539 9.20434 5.88444 9.50871C5.60348 9.81307 5.12899 9.83205 4.82462 9.5511L0.49129 5.5511C0.337478 5.40912 0.25 5.20932 0.25 5Z" fill="#272733"/>
</svg>
