<svg width="40" height="40" viewBox="0 0 40 40" fill="none" xmlns="http://www.w3.org/2000/svg">
<path fill-rule="evenodd" clip-rule="evenodd" d="M17.5746 4.18497C18.1205 4.10125 18.6503 4.60236 18.758 5.30424L19.2777 8.69319C19.3853 9.39507 19.03 10.0319 18.4841 10.1156C17.9382 10.1994 17.4084 9.69824 17.3008 8.99636L16.7811 5.60741C16.6734 4.90554 17.0287 4.26869 17.5746 4.18497ZM21.5159 29.8845C22.0618 29.8008 22.5916 30.3019 22.6992 31.0038L23.2189 34.3927C23.3266 35.0946 22.9713 35.7315 22.4254 35.8152C21.8795 35.8989 21.3497 35.3978 21.2421 34.6959L20.7223 31.307C20.6147 30.6051 20.97 29.9682 21.5159 29.8845ZM34.6958 18.758C35.3977 18.6504 35.8988 18.1206 35.8151 17.5747C35.7314 17.0288 35.0945 16.6735 34.3927 16.7811L31.0037 17.3009C30.3018 17.4085 29.8007 17.9383 29.8844 18.4842C29.9682 19.0301 30.605 19.3854 31.3069 19.2778L34.6958 18.758ZM10.1156 21.5159C10.1993 22.0618 9.69817 22.5916 8.9963 22.6993L5.60735 23.219C4.90547 23.3266 4.26862 22.9714 4.1849 22.4255C4.10118 21.8796 4.6023 21.3498 5.30417 21.2421L8.69313 20.7224C9.395 20.6148 10.0318 20.97 10.1156 21.5159ZM31.3529 29.8847C31.9094 30.2932 32.6917 30.1732 33.1003 29.6167C33.5088 29.0602 33.3888 28.2779 32.8323 27.8694L30.1452 25.8969C29.5887 25.4883 28.8064 25.6083 28.3979 26.1648C27.9894 26.7213 28.1093 27.5036 28.6658 27.9122L31.3529 29.8847ZM11.6032 13.8356C11.1947 14.3921 10.4124 14.512 9.85585 14.1035L7.16877 12.131C6.61226 11.7225 6.49229 10.9402 6.9008 10.3837C7.30932 9.82719 8.09163 9.70722 8.64814 10.1157L11.3352 12.0882C11.8917 12.4967 12.0117 13.2791 11.6032 13.8356ZM10.1151 31.3511C9.70661 31.9076 9.82658 32.6899 10.3831 33.0984C10.9396 33.5069 11.7219 33.3869 12.1304 32.8304L14.1029 30.1433C14.5114 29.5868 14.3915 28.8045 13.835 28.396C13.2784 27.9875 12.4961 28.1075 12.0876 28.664L10.1151 31.3511ZM26.1644 11.6023C25.6079 11.1938 25.4879 10.4115 25.8964 9.85495L27.8689 7.16787C28.2774 6.61136 29.0597 6.49139 29.6162 6.8999C30.1727 7.30842 30.2927 8.09073 29.8842 8.64724L27.9117 11.3343C27.5032 11.8908 26.7209 12.0108 26.1644 11.6023ZM25.7662 19.1151C26.2545 22.2996 24.0689 25.2769 20.8845 25.7653C17.7001 26.2537 14.7227 24.0681 14.2343 20.8836C13.7459 17.6992 15.9315 14.7218 19.116 14.2335C22.3004 13.7451 25.2778 15.9307 25.7662 19.1151ZM28.2373 18.7362C28.9349 23.2853 25.8126 27.5388 21.2635 28.2364C16.7143 28.9341 12.4609 25.8118 11.7632 21.2626C11.0655 16.7134 14.1878 12.46 18.737 11.7623C23.2862 11.0647 27.5396 14.187 28.2373 18.7362Z" fill="currentColor"/>
<circle cx="20.0002" cy="19.9989" r="3" transform="rotate(-8.71887 20.0002 19.9989)" fill="currentColor"/>
<defs>
<radialGradient id="paint0_angular" cx="0" cy="0" r="1" gradientUnits="userSpaceOnUse" gradientTransform="translate(20 20.0001) rotate(36.2811) scale(21.2132)">
<stop offset="0.0563223" stop-color="white" stop-opacity="0"/>
<stop offset="0.1875" stop-color="white" stop-opacity="0.309524"/>
<stop offset="0.536458" stop-color="white"/>
<stop offset="0.857748" stop-color="white"/>
<stop offset="0.924619" stop-color="white" stop-opacity="0"/>
</radialGradient>
</defs>
</svg>
