<svg width="40" height="40" viewBox="0 0 40 40" fill="none" xmlns="http://www.w3.org/2000/svg">
<path fill-rule="evenodd" clip-rule="evenodd" d="M18.4517 6.00605C19.1962 5.93155 19.8042 6.555 19.8042 7.31542C19.8042 8.07584 19.1955 8.68362 18.4529 8.77624C17.0992 8.94507 15.7837 9.36668 14.5741 10.0239C12.965 10.8981 11.5928 12.1621 10.5791 13.7041C9.56543 15.2461 8.94154 17.0184 8.7627 18.8639C8.58386 20.7095 8.85559 22.5714 9.55382 24.2848C10.2521 25.9981 11.3552 27.51 12.7656 28.6865C14.1761 29.863 15.8502 30.6678 17.6397 31.0296C19.4292 31.3914 21.2789 31.299 23.0249 30.7607C24.3374 30.356 25.5609 29.7087 26.6355 28.8551C27.2251 28.3869 28.0783 28.3792 28.6073 28.9169C29.1363 29.4546 29.1402 30.3324 28.5619 30.8148C27.1639 31.981 25.5504 32.8596 23.8113 33.3958C21.639 34.0656 19.3376 34.1805 17.1111 33.7304C14.8846 33.2803 12.8017 32.2789 11.0469 30.8152C9.29208 29.3514 7.91952 27.4703 7.05078 25.3386C6.18205 23.2069 5.84396 20.8903 6.06647 18.594C6.28898 16.2978 7.06522 14.0927 8.32643 12.1742C9.58763 10.2557 11.2949 8.68297 13.2969 7.59528C14.8997 6.72452 16.6518 6.18616 18.4517 6.00605Z" fill="currentColor"/>
<path fill-rule="evenodd" clip-rule="evenodd" d="M23.7237 25.2122C23.6784 25.2362 23.634 25.2621 23.5907 25.2898C23.0925 25.6085 22.5501 25.8583 21.9785 26.0302C20.9712 26.3332 19.904 26.3852 18.8716 26.1816C17.8392 25.9779 16.8733 25.525 16.0596 24.8628C15.2459 24.2006 14.6094 23.3496 14.2066 22.3853C13.8038 21.4209 13.647 20.373 13.7502 19.3342C13.8533 18.2954 14.2133 17.2979 14.7981 16.43C15.3829 15.5621 16.1746 14.8506 17.103 14.3586C17.6297 14.0794 18.1913 13.8757 18.7709 13.7518C18.8213 13.741 18.8712 13.7282 18.9203 13.7134C19.0028 13.6886 19.0834 13.6583 19.1611 13.6229C19.7107 13.3726 20.1204 12.8684 20.1204 12.2609C20.1204 11.5163 19.5083 10.9023 18.7657 11.0129C18.5752 11.0413 18.3858 11.0757 18.1976 11.1159C18.1403 11.1282 18.0831 11.141 18.026 11.1543C17.2609 11.3333 16.5195 11.6103 15.8211 11.9805C14.4983 12.6816 13.3703 13.6953 12.5371 14.9319C11.7038 16.1685 11.1909 17.5898 11.0439 19.0699C10.8969 20.55 11.1203 22.0431 11.6943 23.4172C12.2682 24.7912 13.1751 26.0037 14.3345 26.9472C15.4939 27.8907 16.8701 28.5361 18.3411 28.8262C19.8121 29.1164 21.3326 29.0423 22.7679 28.6106C23.5258 28.3826 24.2475 28.0586 24.9162 27.6488C24.966 27.6182 25.0156 27.5871 25.0649 27.5556C25.2267 27.4522 25.3851 27.3436 25.5401 27.2301C26.144 26.7876 26.139 25.9243 25.6081 25.3978C25.1748 24.9682 24.5256 24.899 23.9585 25.1074C23.8783 25.1368 23.7997 25.1719 23.7237 25.2122Z" fill="currentColor"/>
<path fill-rule="evenodd" clip-rule="evenodd" d="M19.4214 19.3416C19.9586 18.8645 20.8024 18.8903 21.3061 19.3992L34.6394 32.8729C35.143 33.3819 35.1158 34.1812 34.5786 34.6584C34.0414 35.1355 33.1976 35.1097 32.6939 34.6008L19.3606 21.1271C18.857 20.6181 18.8842 19.8188 19.4214 19.3416Z" fill="currentColor"/>
<defs>
<radialGradient id="paint0_angular" cx="0" cy="0" r="1" gradientUnits="userSpaceOnUse" gradientTransform="translate(17.5 20) rotate(90) scale(14 11.5)">
<stop offset="0.526042" stop-color="white" stop-opacity="0"/>
<stop offset="0.635417" stop-color="white" stop-opacity="0"/>
<stop offset="0.854167" stop-color="white"/>
<stop offset="1" stop-color="white"/>
</radialGradient>
<radialGradient id="paint1_angular" cx="0" cy="0" r="1" gradientUnits="userSpaceOnUse" gradientTransform="translate(18.5 20) rotate(90) scale(9 7.5)">
<stop offset="0.526042" stop-color="white" stop-opacity="0"/>
<stop offset="0.635417" stop-color="white" stop-opacity="0"/>
<stop offset="0.854167" stop-color="white"/>
<stop offset="1" stop-color="white"/>
</radialGradient>
</defs>
</svg>
