<svg width="40" height="40" viewBox="0 0 40 40" fill="none" xmlns="http://www.w3.org/2000/svg">
<path fill-rule="evenodd" clip-rule="evenodd" d="M29.8294 12.5H10.1706L20 18.2923L29.8294 12.5ZM7.5 13.8417V26.6667C7.5 27.1269 7.8731 27.5 8.33333 27.5H31.6667C32.1269 27.5 32.5 27.1269 32.5 26.6667V13.8417L20.6548 20.8219C20.2518 21.0594 19.7482 21.0594 19.3452 20.8219L7.5 13.8417ZM5 13.3333C5 11.4924 6.49238 10 8.33333 10H31.6667C33.5076 10 35 11.4924 35 13.3333V26.6667C35 28.5076 33.5076 30 31.6667 30H8.33333C6.49238 30 5 28.5076 5 26.6667V13.3333Z" fill="currentColor"/>
<defs>
<radialGradient id="paint0_angular" cx="0" cy="0" r="1" gradientUnits="userSpaceOnUse" gradientTransform="translate(18.5 23) rotate(50.0131) scale(20.2299 22.9431)">
<stop offset="0.1875" stop-color="white" stop-opacity="0.309524"/>
<stop offset="0.536458" stop-color="white"/>
<stop offset="0.844045" stop-color="white"/>
<stop offset="0.89785" stop-color="white" stop-opacity="0"/>
<stop offset="0.97699" stop-color="white" stop-opacity="0"/>
</radialGradient>
</defs>
</svg>
