<svg width="16" height="16" viewBox="0 0 16 16" fill="none" xmlns="http://www.w3.org/2000/svg">
<path fill-rule="evenodd" clip-rule="evenodd" d="M2.86581 13.0212C2.76713 12.9226 2.71418 12.7871 2.71976 12.6477L2.8769 8.71932C2.88793 8.4434 3.12056 8.22867 3.39648 8.23971C3.6724 8.25074 3.88713 8.48337 3.8761 8.75929L3.77007 11.4099L6.98059 8.19934C7.17585 8.00408 7.49244 8.00408 7.6877 8.19934C7.88296 8.3946 7.88296 8.71119 7.6877 8.90645L4.47718 12.117L7.12775 12.0109C7.40367 11.9999 7.6363 12.2146 7.64733 12.4906C7.65837 12.7665 7.44364 12.9991 7.16772 13.0101L3.23934 13.1673C3.09991 13.1729 2.96448 13.1199 2.86581 13.0212Z" fill="white"/>
<path fill-rule="evenodd" clip-rule="evenodd" d="M13.0204 2.86549C13.1191 2.96416 13.172 3.09959 13.1665 3.23902L13.0093 7.1674C12.9983 7.44332 12.7657 7.65805 12.4897 7.64701C12.2138 7.63597 11.9991 7.40335 12.0101 7.12743L12.1162 4.47686L8.90564 7.68738C8.71038 7.88264 8.39379 7.88264 8.19853 7.68738C8.00327 7.49212 8.00327 7.17553 8.19853 6.98027L11.4091 3.76975L8.75848 3.87577C8.48256 3.88681 8.24993 3.67208 8.2389 3.39616C8.22786 3.12024 8.44259 2.88761 8.71851 2.87657L12.6469 2.71944C12.7863 2.71386 12.9217 2.76681 13.0204 2.86549Z" fill="white"/>
</svg>
