<svg width="40" height="40" viewBox="0 0 40 40" fill="none" xmlns="http://www.w3.org/2000/svg">
<path fill-rule="evenodd" clip-rule="evenodd" d="M21 32.4606C27.1061 31.9773 31.9773 27.1061 32.4606 21H31.5C30.6716 21 30 20.5523 30 20C30 19.4477 30.6716 19 31.5 19H32.4606C31.9773 12.8939 27.1061 8.02274 21 7.53942V8.5C21 9.32843 20.5523 10 20 10C19.4477 10 19 9.32843 19 8.5V7.53942C12.8939 8.02274 8.02274 12.8939 7.53942 19H8.5C9.32843 19 10 19.4477 10 20C10 20.5523 9.32843 21 8.5 21H7.53942C8.02274 27.1061 12.8939 31.9773 19 32.4606V31.5C19 30.6716 19.4477 30 20 30C20.5523 30 21 30.6716 21 31.5V32.4606ZM5 20C5 28.2843 11.7157 35 20 35C28.2843 35 35 28.2843 35 20C35 11.7157 28.2843 5 20 5C11.7157 5 5 11.7157 5 20Z" fill="currentColor"/>
<path fill-rule="evenodd" clip-rule="evenodd" d="M26.7763 13.2236C27.1377 13.585 27.2427 14.13 27.0413 14.5998L23.5058 22.8494C23.2339 23.484 22.499 23.7779 21.8645 23.506C21.2299 23.234 20.936 22.4992 21.2079 21.8646L23.5125 16.4874L18.1352 18.7919C17.5007 19.0639 16.7658 18.7699 16.4939 18.1354C16.222 17.5008 16.5159 16.766 17.1504 16.494L25.4 12.9585C25.8698 12.7572 26.4149 12.8621 26.7763 13.2236Z" fill="currentColor"/>
<path fill-rule="evenodd" clip-rule="evenodd" d="M13.2237 26.7764C12.8623 26.415 12.7573 25.87 12.9587 25.4002L16.4942 17.1506C16.7661 16.516 17.501 16.2221 18.1355 16.494C18.7701 16.766 19.064 17.5008 18.7921 18.1354L16.4875 23.5126L21.8648 21.2081C22.4993 20.9361 23.2342 21.2301 23.5061 21.8646C23.778 22.4992 23.4841 23.234 22.8496 23.506L14.6 27.0415C14.1302 27.2428 13.5851 27.1379 13.2237 26.7764Z" fill="currentColor"/>
<defs>
<radialGradient id="paint0_angular" cx="0" cy="0" r="1" gradientUnits="userSpaceOnUse" gradientTransform="translate(20 20) rotate(38.6598) scale(38.4187 35.6994)">
<stop offset="0.1875" stop-color="white" stop-opacity="0.309524"/>
<stop offset="0.536458" stop-color="white"/>
<stop offset="0.82018" stop-color="white"/>
<stop offset="0.869225" stop-color="white" stop-opacity="0"/>
<stop offset="0.97699" stop-color="white" stop-opacity="0"/>
</radialGradient>
</defs>
</svg>
