<svg width="20" height="28" viewBox="0 0 20 28" fill="none" xmlns="http://www.w3.org/2000/svg">
<path fill-rule="evenodd" clip-rule="evenodd" d="M8.83705 0.171201C9.31232 -0.084182 9.88772 -0.0519143 10.3324 0.255058C12.6033 1.82276 14.6716 4.5382 15.3084 7.45933C15.6327 8.94679 15.5945 10.5398 14.955 12.0494C14.3116 13.5679 13.1147 14.8713 11.3473 15.8629C10.6456 16.2566 9.76242 15.9982 9.37465 15.2859C8.98688 14.5735 9.24135 13.6769 9.94304 13.2833C11.2401 12.5556 11.9384 11.7098 12.288 10.8848C12.6413 10.0508 12.6939 9.10583 12.4738 8.09621C12.2036 6.85664 11.5369 5.60208 10.668 4.53369C10.4175 5.71304 10.0203 6.72509 9.51581 7.61963C8.63799 9.17621 7.47852 10.2915 6.4667 11.2366C6.40145 11.2975 6.33698 11.3576 6.27328 11.417C5.30905 12.316 4.52355 13.0484 3.92758 13.9761C3.33051 14.9055 2.90323 16.0773 2.90323 17.848C2.90323 21.827 6.08056 25.0526 10 25.0526C13.9194 25.0526 17.0968 21.827 17.0968 17.848C17.0968 17.0341 17.7467 16.3743 18.5484 16.3743C19.3501 16.3743 20 17.0341 20 17.848C20 23.4548 15.5228 28 10 28C4.47715 28 0 23.4548 0 17.848C0 15.525 0.580782 13.7904 1.49581 12.3661C2.30084 11.1129 3.34922 10.1385 4.2609 9.29109C4.34212 9.2156 4.42226 9.14112 4.50104 9.06753C5.50535 8.12952 6.36201 7.27994 6.99629 6.15523C7.6137 5.0604 8.06452 3.61883 8.06452 1.47369C8.06452 0.927772 8.36178 0.426584 8.83705 0.171201Z" fill="currentColor"/>
<defs>
<radialGradient id="paint0_angular" cx="0" cy="0" r="1" gradientUnits="userSpaceOnUse" gradientTransform="translate(10 19.5) rotate(35.5377) scale(21.5058 24.9932)">
<stop offset="0.1875" stop-color="white" stop-opacity="0.309524"/>
<stop offset="0.536458" stop-color="white"/>
<stop offset="0.749964" stop-color="white"/>
<stop offset="0.834699" stop-color="white" stop-opacity="0"/>
<stop offset="0.97699" stop-color="white" stop-opacity="0"/>
</radialGradient>
</defs>
</svg>
