<svg width="8" height="12" viewBox="0 0 8 12" fill="none" xmlns="http://www.w3.org/2000/svg">
<path fill-rule="evenodd" clip-rule="evenodd" d="M3.77198 0.9375C3.92897 0.9375 4.07882 1.00311 4.1853 1.11847L7.1853 4.36847C7.39602 4.59674 7.38178 4.95261 7.15351 5.16333C6.92523 5.37404 6.56936 5.35981 6.35865 5.13153L4.33448 2.93868L4.33448 10.5C4.33448 10.8107 4.08264 11.0625 3.77198 11.0625C3.46131 11.0625 3.20948 10.8107 3.20948 10.5L3.20948 2.93868L1.1853 5.13153C0.974588 5.35981 0.618717 5.37404 0.390443 5.16333C0.162169 4.95261 0.147934 4.59674 0.358649 4.36847L3.35865 1.11847C3.46513 1.00311 3.61498 0.9375 3.77198 0.9375Z" fill="#A2D241"/>
</svg>
