<svg width="8" height="12" viewBox="0 0 8 12" fill="none" xmlns="http://www.w3.org/2000/svg">
<path fill-rule="evenodd" clip-rule="evenodd" d="M3.73486 11.0625C3.57787 11.0625 3.42802 10.9969 3.32153 10.8815L0.321533 7.63153C0.110819 7.40326 0.125053 7.04739 0.353328 6.83667C0.581602 6.62596 0.937473 6.64019 1.14819 6.86847L3.17236 9.06132L3.17236 1.5C3.17236 1.18934 3.4242 0.9375 3.73486 0.9375C4.04552 0.9375 4.29736 1.18934 4.29736 1.5L4.29736 9.06132L6.32153 6.86847C6.53225 6.64019 6.88812 6.62596 7.11639 6.83667C7.34467 7.04739 7.3589 7.40326 7.14819 7.63153L4.14819 10.8815C4.0417 10.9969 3.89185 11.0625 3.73486 11.0625Z" fill="#FF6769"/>
</svg>
