<svg width="16" height="16" viewBox="0 0 16 16" fill="none" xmlns="http://www.w3.org/2000/svg">
<path fill-rule="evenodd" clip-rule="evenodd" d="M7.6879 8.19968C7.78658 8.29836 7.83953 8.43378 7.83395 8.57322L7.67682 12.5016C7.66578 12.7775 7.43315 12.9922 7.15723 12.9812C6.88131 12.9702 6.66658 12.7375 6.67761 12.4616L6.78364 9.81106L3.57312 13.0216C3.37786 13.2168 3.06127 13.2168 2.86601 13.0216C2.67075 12.8263 2.67075 12.5097 2.86601 12.3145L6.07653 9.10395L3.42596 9.20997C3.15004 9.22101 2.91741 9.00628 2.90638 8.73036C2.89534 8.45443 3.11007 8.22181 3.38599 8.21077L7.31437 8.05364C7.4538 8.04806 7.58923 8.10101 7.6879 8.19968Z" fill="white"/>
<path fill-rule="evenodd" clip-rule="evenodd" d="M8.19833 7.68704C8.09965 7.58836 8.0467 7.45294 8.05228 7.3135L8.20941 3.38513C8.22045 3.1092 8.45308 2.89447 8.729 2.90551C9.00492 2.91655 9.21965 3.14917 9.20862 3.42509L9.10259 6.07566L12.3131 2.86514C12.5084 2.66988 12.825 2.66988 13.0202 2.86514C13.2155 3.0604 13.2155 3.37699 13.0202 3.57225L9.8097 6.78277L12.4603 6.67675C12.7362 6.66571 12.9688 6.88044 12.9799 7.15636C12.9909 7.43228 12.7762 7.66491 12.5002 7.67595L8.57186 7.83308C8.43243 7.83866 8.297 7.78571 8.19833 7.68704Z" fill="white"/>
</svg>
