<svg width="40" height="40" viewBox="0 0 40 40" fill="none" xmlns="http://www.w3.org/2000/svg">
<path fill-rule="evenodd" clip-rule="evenodd" d="M5.06972 12.6327C4.75212 13.3978 5.11491 14.2756 5.88004 14.5932C6.64517 14.9108 7.52289 14.548 7.84049 13.7828C8.3943 12.4487 9.20546 11.2367 10.2277 10.216C11.2499 9.1953 12.4631 8.38596 13.7981 7.83416C15.1331 7.28237 16.5637 6.99892 18.0083 7C19.4528 7.00109 20.883 7.28669 22.2172 7.84049C22.9823 8.15809 23.86 7.7953 24.1776 7.03017C24.4952 6.26504 24.1324 5.38732 23.3673 5.06972C21.6693 4.36487 19.849 4.00139 18.0105 4C16.172 3.99862 14.3512 4.35937 12.6522 5.06166C10.9531 5.76395 9.40895 6.79402 8.10795 8.09307C6.80695 9.39211 5.77456 10.9347 5.06972 12.6327ZM35 10.5002C35 12.9854 32.9853 15.0002 30.5 15.0002C28.0147 15.0002 26 12.9854 26 10.5002C26 8.01488 28.0147 6.00016 30.5 6.00016C32.9853 6.00016 35 8.01488 35 10.5002ZM33.4685 28.194C34.1771 28.6232 34.4035 29.5456 33.9743 30.2541C32.2398 33.1173 29.5368 35.2643 26.3554 36.3057C23.1739 37.3471 19.7245 37.2141 16.6327 35.9307C15.8676 35.6131 15.5048 34.7354 15.8224 33.9702C16.14 33.2051 17.0177 32.8423 17.7829 33.1599C20.2121 34.1683 22.9223 34.2728 25.4221 33.4546C27.9218 32.6363 30.0456 30.9494 31.4084 28.6998C31.8376 27.9912 32.76 27.7648 33.4685 28.194ZM14 31.5002C14 33.9854 11.9853 36.0002 9.50001 36.0002C7.01473 36.0002 5.00001 33.9854 5.00001 31.5002C5.00001 29.0149 7.01473 27.0002 9.50001 27.0002C11.9853 27.0002 14 29.0149 14 31.5002ZM26.0607 17.0608C26.6465 16.475 26.6465 15.5253 26.0607 14.9395C25.4749 14.3537 24.5251 14.3537 23.9394 14.9395L14.9394 23.9395C14.3536 24.5253 14.3536 25.475 14.9394 26.0608C15.5251 26.6466 16.4749 26.6466 17.0607 26.0608L26.0607 17.0608Z" fill="currentColor"/>
<defs>
<radialGradient id="paint0_angular" cx="0" cy="0" r="1" gradientUnits="userSpaceOnUse" gradientTransform="translate(19.9774 26.9824) rotate(29.2656) scale(30.1361 31.579)">
<stop offset="0.1875" stop-color="white" stop-opacity="0.309524"/>
<stop offset="0.536458" stop-color="white"/>
<stop offset="0.749964" stop-color="white"/>
<stop offset="0.834699" stop-color="white" stop-opacity="0"/>
<stop offset="0.97699" stop-color="white" stop-opacity="0"/>
</radialGradient>
</defs>
</svg>
