<svg width="40" height="40" viewBox="0 0 40 40" fill="none" xmlns="http://www.w3.org/2000/svg">
<path fill-rule="evenodd" clip-rule="evenodd" d="M20.5 28C25.1944 28 29 24.1944 29 19.5C29 14.8056 25.1944 11 20.5 11C15.8056 11 12 14.8056 12 19.5C12 24.1944 15.8056 28 20.5 28ZM20.5 31C26.8513 31 32 25.8513 32 19.5C32 13.1487 26.8513 8 20.5 8C14.1487 8 9 13.1487 9 19.5C9 25.8513 14.1487 31 20.5 31Z" fill="currentColor"/>
<path opacity="0.5" fill-rule="evenodd" clip-rule="evenodd" d="M20.5 33C27.9558 33 34 26.9558 34 19.5C34 12.0442 27.9558 6 20.5 6C13.0442 6 7 12.0442 7 19.5C7 26.9558 13.0442 33 20.5 33ZM20.5 35C29.0604 35 36 28.0604 36 19.5C36 10.9396 29.0604 4 20.5 4C11.9396 4 5 10.9396 5 19.5C5 28.0604 11.9396 35 20.5 35Z" fill="currentColor"/>
<path opacity="0.25" fill-rule="evenodd" clip-rule="evenodd" d="M20.5 37C30.165 37 38 29.165 38 19.5C38 9.83502 30.165 2 20.5 2C10.835 2 3 9.83502 3 19.5C3 29.165 10.835 37 20.5 37ZM20.5 38C30.7173 38 39 29.7173 39 19.5C39 9.28273 30.7173 1 20.5 1C10.2827 1 2 9.28273 2 19.5C2 29.7173 10.2827 38 20.5 38Z" fill="currentColor"/>
<circle cx="20.5" cy="19.5" r="4.5" fill="currentColor"/>
</svg>
