<svg width="32" height="32" viewBox="0 0 32 32" fill="none" xmlns="http://www.w3.org/2000/svg">
<path fill-rule="evenodd" clip-rule="evenodd" d="M6.7 4.03077H22.9C23.2728 4.03077 23.575 4.33384 23.575 4.70769V15.5998H25.6V4.70769C25.6 3.21228 24.3912 2 22.9 2H6.7C5.20883 2 4 3.21227 4 4.70769V24.0923C4 25.5877 5.20883 26.8 6.7 26.8H14.4V24.7692H6.7C6.32721 24.7692 6.025 24.4662 6.025 24.0923V4.70769C6.025 4.33384 6.32721 4.03077 6.7 4.03077Z" fill="url(#paint0_angular)"/>
<path fill-rule="evenodd" clip-rule="evenodd" d="M8 13.1994C8 12.7576 8.43957 12.3994 8.98182 12.3994H14.2182C14.7604 12.3994 15.2 12.7576 15.2 13.1994C15.2 13.6412 14.7604 13.9994 14.2182 13.9994H8.98182C8.43957 13.9994 8 13.6412 8 13.1994Z" fill="#5BB6FA"/>
<path fill-rule="evenodd" clip-rule="evenodd" d="M8 9.19941C8 8.75759 8.45243 8.39941 9.01053 8.39941H19.7895C20.3476 8.39941 20.8 8.75759 20.8 9.19941C20.8 9.64124 20.3476 9.99941 19.7895 9.99941H9.01053C8.45243 9.99941 8 9.64124 8 9.19941Z" fill="#5BB6FA"/>
<path fill-rule="evenodd" clip-rule="evenodd" d="M20.3999 27.6C21.1879 27.6 21.9681 27.4448 22.696 27.1433C23.424 26.8417 24.0854 26.3998 24.6426 25.8426C25.1997 25.2855 25.6417 24.6241 25.9432 23.8961C26.2447 23.1681 26.3999 22.3879 26.3999 21.6C26.3999 20.8121 26.2447 20.0319 25.9432 19.3039C25.6417 18.5759 25.1997 17.9145 24.6426 17.3574C24.0854 16.8002 23.424 16.3583 22.696 16.0567C21.9681 15.7552 21.1879 15.6 20.3999 15.6C19.612 15.6 18.8318 15.7552 18.1038 16.0567C17.3759 16.3582 16.7144 16.8002 16.1573 17.3574C15.6001 17.9145 15.1582 18.5759 14.8566 19.3039C14.5551 20.0319 14.3999 20.8121 14.3999 21.6C14.3999 22.3879 14.5551 23.1681 14.8566 23.8961C15.1582 24.6241 15.6001 25.2855 16.1573 25.8426C16.7144 26.3998 17.3759 26.8417 18.1038 27.1433C18.8318 27.4448 19.612 27.6 20.3999 27.6ZM23.6145 29.3606C22.5953 29.7827 21.503 30 20.3999 30C19.2968 30 18.2045 29.7827 17.1854 29.3606C16.1662 28.9384 15.2402 28.3197 14.4602 27.5397C13.6802 26.7597 13.0615 25.8337 12.6393 24.8145C12.2172 23.7954 11.9999 22.7031 11.9999 21.6C11.9999 20.4969 12.2172 19.4046 12.6393 18.3855C13.0615 17.3663 13.6802 16.4403 14.4602 15.6603C15.2402 14.8803 16.1663 14.2615 17.1854 13.8394C18.2045 13.4173 19.2968 13.2 20.3999 13.2C21.503 13.2 22.5953 13.4173 23.6145 13.8394C24.6336 14.2616 25.5596 14.8803 26.3396 15.6603C27.1196 16.4403 27.7384 17.3663 28.1605 18.3855C28.5827 19.4046 28.7999 20.4969 28.7999 21.6C28.7999 22.7031 28.5827 23.7954 28.1605 24.8145C27.7384 25.8337 27.1196 26.7597 26.3396 27.5397C25.5596 28.3197 24.6336 28.9384 23.6145 29.3606Z" fill="#5BB6FA"/>
<path d="M21.6474 21.7391L26.5092 19.1652C26.8933 18.9619 27.0485 18.4851 26.8127 18.12C25.3811 15.9025 23.0631 15.066 21.5554 14.8563C21.134 14.7977 20.7825 15.1325 20.7601 15.5574L20.4742 20.99C20.4415 21.6107 21.0981 22.0299 21.6474 21.7391Z" fill="#5BB6FA"/>
<defs>
<radialGradient id="paint0_angular" cx="0" cy="0" r="1" gradientUnits="userSpaceOnUse" gradientTransform="translate(14.8 14.4) rotate(52.4959) scale(21.6813 21.9285)">
<stop offset="0.1875" stop-color="#5BB6FA" stop-opacity="0.3"/>
<stop offset="0.536458" stop-color="#5BB6FA"/>
<stop offset="0.749964" stop-color="#5BB6FA"/>
<stop offset="0.834699" stop-color="#5BB6FA" stop-opacity="0.05"/>
<stop offset="0.97699" stop-color="#5BB6FA"/>
</radialGradient>
</defs>
</svg>
