<svg width="40" height="40" viewBox="0 0 40 40" fill="none" xmlns="http://www.w3.org/2000/svg">
<path fill-rule="evenodd" clip-rule="evenodd" d="M20 12.5408C18.3798 12.5408 16.7814 12.9293 15.3283 13.6762C13.8753 14.4232 12.6065 15.5085 11.6202 16.8484C10.6339 18.1882 9.95653 19.7465 9.64046 21.4029C9.32438 23.0593 9.37808 24.7692 9.79741 26.4005C9.97162 27.0782 9.58578 27.7748 8.93562 27.9564C8.28546 28.138 7.61718 27.7358 7.44296 27.0581C6.92687 25.0504 6.86077 22.9458 7.24979 20.9072C7.63881 18.8686 8.47251 16.9506 9.68641 15.3016C10.9003 13.6526 12.4618 12.3168 14.2502 11.3975C16.0386 10.4782 18.006 10 20 10C21.994 10 23.9614 10.4782 25.7498 11.3975C27.5382 12.3168 29.0997 13.6526 30.3136 15.3016C31.5275 16.9506 32.3612 18.8686 32.7502 20.9072C33.1392 22.9458 33.0731 25.0504 32.557 27.0581C32.3828 27.7358 31.7145 28.138 31.0644 27.9564C30.4142 27.7748 30.0284 27.0782 30.2026 26.4005C30.6219 24.7692 30.6756 23.0593 30.3595 21.4029C30.0435 19.7465 29.3661 18.1882 28.3798 16.8484C27.3935 15.5085 26.1248 14.4232 24.6717 13.6762C23.2186 12.9293 21.6202 12.5408 20 12.5408Z" fill="currentColor"/>
<path fill-rule="evenodd" clip-rule="evenodd" d="M18.6993 27.7828L25.3659 21.1161C25.8541 20.628 26.6455 20.628 27.1337 21.1161C27.6218 21.6043 27.6218 22.3957 27.1337 22.8839L20.467 29.5505C19.9789 30.0387 19.1874 30.0387 18.6993 29.5505C18.2111 29.0624 18.2111 28.2709 18.6993 27.7828Z" fill="currentColor"/>
<defs>
<radialGradient id="paint0_angular" cx="0" cy="0" r="1" gradientUnits="userSpaceOnUse" gradientTransform="translate(20 19) rotate(90) scale(18 19.5)">
<stop offset="0.0195233" stop-color="white" stop-opacity="0"/>
<stop offset="0.194847" stop-color="white" stop-opacity="0"/>
<stop offset="0.456451" stop-color="white" stop-opacity="0.309524"/>
<stop offset="0.854167" stop-color="white"/>
<stop offset="1" stop-color="white"/>
</radialGradient>
</defs>
</svg>
