<svg width="24" height="24" viewBox="0 0 24 24" fill="none" xmlns="http://www.w3.org/2000/svg">
<path fill-rule="evenodd" clip-rule="evenodd" d="M10 5.25H14C14.2761 5.25 14.5 5.47386 14.5 5.75V7.74976H16V5.75C16 4.64543 15.1046 3.75 14 3.75H10C8.89543 3.75 8 4.64543 8 5.75V7.74976H9.5V5.75C9.5 5.47386 9.72386 5.25 10 5.25Z" fill="#272733"/>
<path fill-rule="evenodd" clip-rule="evenodd" d="M5 9.25049H19C19.2761 9.25049 19.5 9.47435 19.5 9.75049V15.7505C19.5 16.0266 19.2761 16.2505 19 16.2505H15V17.7505H19C20.1046 17.7505 21 16.8551 21 15.7505V9.75049C21 8.64592 20.1046 7.75049 19 7.75049H5C3.89543 7.75049 3 8.64592 3 9.75049V15.7505C3 16.8551 3.89543 17.7505 5 17.7505H8.25V16.2505H5C4.72386 16.2505 4.5 16.0266 4.5 15.7505V9.75049C4.5 9.47435 4.72386 9.25049 5 9.25049Z" fill="url(#paint0_angular)"/>
<path fill-rule="evenodd" clip-rule="evenodd" d="M6.25 13.7505C6.25 13.3363 6.58579 13.0005 7 13.0005L17 13.0005C17.4142 13.0005 17.75 13.3363 17.75 13.7505C17.75 14.1647 17.4142 14.5005 17 14.5005L7 14.5005C6.58579 14.5005 6.25 14.1647 6.25 13.7505Z" fill="#272733"/>
<path fill-rule="evenodd" clip-rule="evenodd" d="M7.99976 13.751V14.2507V18.7507C7.99976 19.8553 8.89518 20.7507 9.99975 20.7507L13.9998 20.7507C15.1043 20.7507 15.9998 19.8553 15.9998 18.7507L15.9998 14.2507V13.751H7.99976ZM13.9998 19.2507L9.99975 19.2507C9.72361 19.2507 9.49976 19.0269 9.49976 18.7507L9.49976 14.2507L14.4998 14.2507L14.4998 18.7507C14.4998 19.0269 14.2759 19.2507 13.9998 19.2507Z" fill="#272733"/>
<defs>
<radialGradient id="paint0_angular" cx="0" cy="0" r="1" gradientUnits="userSpaceOnUse" gradientTransform="translate(12 12.7505) rotate(-124.249) scale(14.2149 25.5868)">
<stop offset="0.000287336" stop-color="#272733"/>
<stop offset="0.411455" stop-color="#272733" stop-opacity="0.2"/>
<stop offset="0.507452" stop-color="#272733" stop-opacity="0.05"/>
<stop offset="0.638658" stop-color="#272733" stop-opacity="0.05"/>
</radialGradient>
</defs>
</svg>
