<svg width="40" height="40" viewBox="0 0 40 40" fill="none" xmlns="http://www.w3.org/2000/svg">
<path fill-rule="evenodd" clip-rule="evenodd" d="M22.9167 19.9997C22.9167 20.3486 22.7709 20.6816 22.5145 20.9182L15.2923 27.5849C14.785 28.0531 13.9942 28.0215 13.526 27.5142C13.0577 27.0069 13.0893 26.2161 13.5966 25.7478L18.4696 21.2497L6.66669 21.2497C5.97633 21.2497 5.41669 20.69 5.41669 19.9997C5.41669 19.3093 5.97633 18.7497 6.66669 18.7497L18.4696 18.7497L13.5966 14.2515C13.0893 13.7833 13.0577 12.9924 13.526 12.4852C13.9942 11.9779 14.785 11.9463 15.2923 12.4145L22.5145 19.0812C22.7709 19.3178 22.9167 19.6508 22.9167 19.9997Z" fill="currentColor"/>
<path d="M33 20C33 21.6569 31.6569 23 30 23C28.3431 23 27 21.6569 27 20C27 18.3431 28.3431 17 30 17C31.6569 17 33 18.3431 33 20Z" fill="currentColor"/>
<defs>
<linearGradient id="paint0_linear" x1="18.4997" y1="19.999" x2="7.49969" y2="19.9997" gradientUnits="userSpaceOnUse">
<stop stop-color="white"/>
<stop offset="1" stop-color="white" stop-opacity="0"/>
</linearGradient>
</defs>
</svg>
