<svg width="40" height="40" viewBox="0 0 40 40" fill="none" xmlns="http://www.w3.org/2000/svg">
<path fill-rule="evenodd" clip-rule="evenodd" d="M9.375 6.53846H29.625C30.091 6.53846 30.4688 6.9173 30.4688 7.38462V21H33V7.38462C33 5.51534 31.489 4 29.625 4H9.375C7.51104 4 6 5.51534 6 7.38461V31.6154C6 33.4847 7.51104 35 9.375 35H19V32.4615H9.375C8.90901 32.4615 8.53125 32.0827 8.53125 31.6154V7.38461C8.53125 6.9173 8.90901 6.53846 9.375 6.53846Z" fill="currentColor"/>
<path fill-rule="evenodd" clip-rule="evenodd" d="M11 18C11 17.4477 11.5495 17 12.2273 17H18.7727C19.4505 17 20 17.4477 20 18C20 18.5523 19.4505 19 18.7727 19H12.2273C11.5495 19 11 18.5523 11 18Z" fill="currentColor"/>
<path fill-rule="evenodd" clip-rule="evenodd" d="M11 13C11 12.4477 11.5655 12 12.2632 12H25.7368C26.4345 12 27 12.4477 27 13C27 13.5523 26.4345 14 25.7368 14H12.2632C11.5655 14 11 13.5523 11 13Z" fill="currentColor"/>
<path fill-rule="evenodd" clip-rule="evenodd" d="M26.5 36C27.4849 36 28.4602 35.806 29.3701 35.4291C30.2801 35.0522 31.1069 34.4997 31.8033 33.8033C32.4997 33.1069 33.0522 32.2801 33.4291 31.3701C33.806 30.4602 34 29.4849 34 28.5C34 27.5151 33.806 26.5398 33.4291 25.6299C33.0522 24.7199 32.4997 23.8931 31.8033 23.1967C31.1069 22.5003 30.2801 21.9478 29.3701 21.5709C28.4602 21.194 27.4849 21 26.5 21C25.5151 21 24.5398 21.194 23.6299 21.5709C22.7199 21.9478 21.8931 22.5003 21.1967 23.1967C20.5003 23.8931 19.9478 24.7199 19.5709 25.6299C19.194 26.5398 19 27.5151 19 28.5C19 29.4849 19.194 30.4602 19.5709 31.3701C19.9478 32.2801 20.5003 33.1069 21.1967 33.8033C21.8931 34.4997 22.7199 35.0522 23.6299 35.4291C24.5398 35.806 25.5151 36 26.5 36ZM30.5182 38.2007C29.2443 38.7284 27.8789 39 26.5 39C25.1211 39 23.7557 38.7284 22.4818 38.2007C21.2079 37.6731 20.0504 36.8996 19.0754 35.9246C18.1004 34.9496 17.3269 33.7921 16.7993 32.5182C16.2716 31.2443 16 29.8789 16 28.5C16 27.1211 16.2716 25.7557 16.7993 24.4818C17.3269 23.2079 18.1004 22.0504 19.0754 21.0754C20.0504 20.1004 21.2079 19.3269 22.4818 18.7993C23.7557 18.2716 25.1211 18 26.5 18C27.8789 18 29.2443 18.2716 30.5182 18.7993C31.7921 19.3269 32.9496 20.1004 33.9246 21.0754C34.8996 22.0504 35.6731 23.2079 36.2007 24.4818C36.7284 25.7557 37 27.1211 37 28.5C37 29.8789 36.7284 31.2443 36.2007 32.5182C35.6731 33.7921 34.8996 34.9496 33.9246 35.9246C32.9496 36.8996 31.7921 37.6731 30.5182 38.2007Z" fill="currentColor"/>
<path d="M28.0592 28.6744L34.1365 25.457C34.6166 25.2028 34.8105 24.6069 34.5159 24.1505C32.7264 21.3786 29.8288 20.333 27.9442 20.0708C27.4174 19.9976 26.9781 20.4162 26.9501 20.9473L26.5927 27.738C26.5519 28.5138 27.3726 29.0379 28.0592 28.6744Z" fill="currentColor"/>
<defs>
<radialGradient id="paint0_angular" cx="0" cy="0" r="1" gradientUnits="userSpaceOnUse" gradientTransform="translate(19.5 19.5) rotate(52.4959) scale(27.1017 27.4107)">
<stop offset="0.1875" stop-color="white" stop-opacity="0.309524"/>
<stop offset="0.536458" stop-color="white"/>
<stop offset="0.749964" stop-color="white"/>
<stop offset="0.834699" stop-color="white" stop-opacity="0"/>
<stop offset="0.97699" stop-color="white" stop-opacity="0"/>
</radialGradient>
</defs>
</svg>
