<svg width="40" height="40" viewBox="0 0 40 40" fill="none" xmlns="http://www.w3.org/2000/svg">
<path d="M23.75 20.4163C23.75 22.2573 22.2577 23.7497 20.4167 23.7497C18.5758 23.7497 17.0834 22.2573 17.0834 20.4163C17.0834 18.5754 18.5758 17.083 20.4167 17.083C22.2577 17.083 23.75 18.5754 23.75 20.4163Z" fill="white"/>
<path fill-rule="evenodd" clip-rule="evenodd" d="M9.24584 21.1315C9.94021 22.5115 11.2286 24.4315 13.0246 26.0508C14.994 27.8265 17.4866 29.1667 20.4167 29.1667C23.3532 29.1667 25.9176 27.8208 27.9205 26.0441C29.7849 24.3901 31.0613 22.4507 31.6197 21.1326C31.2994 19.7276 30.3169 17.6499 28.5686 15.8779C26.7124 13.9967 24.0349 12.5 20.4167 12.5C13.5691 12.5 10.2019 17.9575 9.24584 21.1315ZM6.70401 20.9468C7.59983 17.3635 11.5785 10 20.4167 10C24.7985 10 28.0932 11.8366 30.3482 14.1221C32.5714 16.3754 33.8265 19.1057 34.1497 21.0445C34.1851 21.2569 34.165 21.4748 34.0914 21.6772C33.4565 23.4233 31.8685 25.8838 29.5795 27.9143C27.2769 29.957 24.1468 31.6667 20.4167 31.6667C16.6801 31.6667 13.6171 29.9513 11.3505 27.9075C9.0907 25.87 7.53579 23.4328 6.77873 21.7673C6.66183 21.5101 6.63549 21.2209 6.70401 20.9468Z" fill="currentColor"/>
<defs>
<radialGradient id="paint0_angular" cx="0" cy="0" r="1" gradientUnits="userSpaceOnUse" gradientTransform="translate(20.4167 20.8333) rotate(55.2304) scale(28.2021 20.6471)">
<stop offset="0.1875" stop-color="white" stop-opacity="0.309524"/>
<stop offset="0.536458" stop-color="white"/>
<stop offset="0.749964" stop-color="white"/>
<stop offset="0.834699" stop-color="white" stop-opacity="0"/>
<stop offset="0.97699" stop-color="white" stop-opacity="0"/>
</radialGradient>
</defs>
</svg>
