<svg width="40" height="40" viewBox="0 0 40 40" fill="none" xmlns="http://www.w3.org/2000/svg">
<path fill-rule="evenodd" clip-rule="evenodd" d="M21.3905 27.3905C21.9112 26.8698 22.7554 26.8698 23.2761 27.3905L28.6095 32.7239C29.1302 33.2446 29.1302 34.0888 28.6095 34.6095C28.0888 35.1302 27.2446 35.1302 26.7239 34.6095L21.3905 29.2761C20.8698 28.7554 20.8698 27.9112 21.3905 27.3905Z" fill="currentColor"/>
<path fill-rule="evenodd" clip-rule="evenodd" d="M23.7531 22.6238C23.4719 23.6994 22.9784 24.7149 22.2951 25.6086C21.2536 26.9705 19.8206 27.9849 18.1862 28.5172C16.5518 29.0494 14.7934 29.0743 13.1445 28.5885C11.4955 28.1027 10.0341 27.1293 8.95416 25.7974C7.87424 24.4655 7.22693 22.8381 7.0982 21.1315C6.96947 19.4248 7.3654 17.7195 8.23342 16.2421C9.10144 14.7647 10.4005 13.5849 11.9581 12.8596C12.9801 12.3837 14.0816 12.1181 15.1975 12.0718C15.4389 12.0618 15.681 12.0621 15.9231 12.0727C15.9922 12.0757 16.0608 12.073 16.1281 12.0648C16.6183 12.0051 17.0423 11.6574 17.1258 11.163C17.2206 10.6008 16.8393 10.0631 16.2678 10.0243C16.1834 10.0186 16.0989 10.0139 16.0144 10.0102C15.7129 9.99695 15.4114 9.99664 15.1108 10.0091C13.722 10.0668 12.3509 10.3973 11.0789 10.9897C9.1401 11.8925 7.52313 13.361 6.44266 15.2C5.3622 17.039 4.86937 19.1617 5.02961 21.286C5.18985 23.4104 5.99557 25.436 7.3398 27.0939C8.68403 28.7517 10.5032 29.9635 12.5557 30.5681C14.6082 31.1728 16.7969 31.1418 18.8313 30.4793C20.8657 29.8168 22.6495 28.5541 23.9458 26.8588C24.7963 25.7466 25.4106 24.4827 25.7606 23.1439C25.8364 22.8541 25.8998 22.5607 25.9505 22.2647C25.9647 22.1817 25.9779 22.0985 25.9901 22.0151C26.0728 21.451 25.6253 20.9665 25.0531 20.94C24.5499 20.9167 24.1189 21.2558 23.9567 21.72C23.9344 21.7838 23.9172 21.8499 23.9056 21.9177C23.8648 22.1555 23.8139 22.391 23.7531 22.6238Z" fill="currentColor"/>
<path fill-rule="evenodd" clip-rule="evenodd" d="M27.5 6C28.3284 6 29 6.58763 29 7.3125L29 18.6875C29 19.4124 28.3284 20 27.5 20C26.6716 20 26 19.4124 26 18.6875L26 7.3125C26 6.58763 26.6716 6 27.5 6ZM24 12.35C24 11.6044 23.3284 11 22.5 11C21.6716 11 21 11.6044 21 12.35L21 18.65C21 19.3956 21.6716 20 22.5 20C23.3284 20 24 19.3956 24 18.65V12.35ZM19 16.25C19 15.5596 18.3284 15 17.5 15C16.6716 15 16 15.5596 16 16.25V18.75C16 19.4404 16.6716 20 17.5 20C18.3284 20 19 19.4404 19 18.75L19 16.25ZM34 11.25C34 10.5596 33.3284 10 32.5 10C31.6716 10 31 10.5596 31 11.25V18.75C31 19.4404 31.6716 20 32.5 20C33.3284 20 34 19.4404 34 18.75V11.25Z" fill="currentColor"/>
<defs>
<radialGradient id="paint0_angular" cx="0" cy="0" r="1" gradientUnits="userSpaceOnUse" gradientTransform="translate(15.5 20.5) rotate(90) scale(10.5)">
<stop offset="0.526042" stop-color="white" stop-opacity="0"/>
<stop offset="0.635417" stop-color="white" stop-opacity="0"/>
<stop offset="0.854167" stop-color="white"/>
<stop offset="1" stop-color="white"/>
</radialGradient>
<linearGradient id="paint1_linear" x1="34" y1="20" x2="14" y2="20" gradientUnits="userSpaceOnUse">
<stop stop-color="white"/>
<stop offset="0.416667" stop-color="white"/>
<stop offset="1" stop-color="white" stop-opacity="0"/>
</linearGradient>
</defs>
</svg>
