<svg width="24" height="24" viewBox="0 0 24 24" fill="none" xmlns="http://www.w3.org/2000/svg">
<path fill-rule="evenodd" clip-rule="evenodd" d="M17.25 10.75C19.183 10.75 20.75 9.183 20.75 7.25C20.75 5.317 19.183 3.75 17.25 3.75C15.317 3.75 13.75 5.317 13.75 7.25C13.75 7.61286 13.8052 7.96283 13.9077 8.29196L9.8477 10.9043C9.20719 10.1955 8.28062 9.75 7.25 9.75C5.317 9.75 3.75 11.317 3.75 13.25C3.75 15.183 5.317 16.75 7.25 16.75C8.47814 16.75 9.55854 16.1174 10.1832 15.1603L13.7863 16.7442C13.7624 16.9094 13.75 17.0782 13.75 17.25C13.75 19.183 15.317 20.75 17.25 20.75C19.183 20.75 20.75 19.183 20.75 17.25C20.75 15.317 19.183 13.75 17.25 13.75C16.0218 13.75 14.9413 14.3826 14.3167 15.3398L10.7137 13.756C10.7376 13.5908 10.75 13.4218 10.75 13.25C10.75 12.8871 10.6948 12.5372 10.5923 12.208L14.6523 9.59567C15.2928 10.3045 16.2194 10.75 17.25 10.75ZM19.25 7.25C19.25 8.35457 18.3546 9.25 17.25 9.25C16.1454 9.25 15.25 8.35457 15.25 7.25C15.25 6.14543 16.1454 5.25 17.25 5.25C18.3546 5.25 19.25 6.14543 19.25 7.25ZM17.25 19.25C18.3546 19.25 19.25 18.3546 19.25 17.25C19.25 16.1454 18.3546 15.25 17.25 15.25C16.1454 15.25 15.25 16.1454 15.25 17.25C15.25 18.3546 16.1454 19.25 17.25 19.25ZM9.25 13.25C9.25 14.3546 8.35457 15.25 7.25 15.25C6.14543 15.25 5.25 14.3546 5.25 13.25C5.25 12.1454 6.14543 11.25 7.25 11.25C8.35457 11.25 9.25 12.1454 9.25 13.25Z" fill="url(#paint0_angular)"/>
<defs>
<radialGradient id="paint0_angular" cx="0" cy="0" r="1" gradientUnits="userSpaceOnUse" gradientTransform="translate(12.25 12.25) rotate(-0.763898) scale(18.7517 18.8291)">
<stop stop-color="#272733"/>
<stop offset="0.401198" stop-color="#272733"/>
<stop offset="0.931177" stop-color="#272733" stop-opacity="0.05"/>
<stop offset="0.997414" stop-color="#272733" stop-opacity="0.05"/>
</radialGradient>
</defs>
</svg>
