<svg width="32" height="32" viewBox="0 0 32 32" fill="none" xmlns="http://www.w3.org/2000/svg">
<path fill-rule="evenodd" clip-rule="evenodd" d="M15.4286 6.85695C15.4287 5.27908 16.7078 4 18.2857 4C19.8637 4 21.1429 5.27919 21.1429 6.85715L21.1429 11.4284C21.6204 11.0697 22.2139 10.8571 22.8571 10.8571C24.4351 10.8571 25.7143 12.1363 25.7143 13.7143C25.7143 14.3575 25.5017 14.951 25.1431 15.4286C26.7209 15.4287 28 16.7078 28 18.2857C28 19.8637 26.7208 21.1429 25.1429 21.1429H20.5716C20.9303 21.6204 21.1429 22.2139 21.1429 22.8571C21.1429 24.4351 19.8637 25.7143 18.2857 25.7143C17.6425 25.7143 17.0489 25.5017 16.5714 25.143C16.5713 26.7209 15.2922 28 13.7143 28C12.1363 28 10.8571 26.7208 10.8571 25.1429V20.5716C10.3796 20.9303 9.78606 21.1429 9.14286 21.1429C7.5649 21.1429 6.28571 19.8637 6.28571 18.2857C6.28571 17.6425 6.49826 17.0489 6.85695 16.5714C5.27909 16.5713 4 15.2922 4 13.7143C4 12.1363 5.27918 10.8571 6.85713 10.8571H11.4284C11.0697 10.3796 10.8571 9.78606 10.8571 9.14285C10.8571 7.5649 12.1363 6.28571 13.7143 6.28571C14.3575 6.28571 14.951 6.49826 15.4286 6.85695ZM15.4286 15.4286L15.4286 12H6.85713C5.91036 12 5.14286 12.7675 5.14286 13.7143C5.14286 14.661 5.91037 15.4285 6.85713 15.4285L15.4286 15.4286ZM15.4285 10.8571H13.7143C12.7675 10.8571 12 10.0896 12 9.14285C12 8.19608 12.7675 7.42857 13.7143 7.42857C14.661 7.42857 15.4285 8.19608 15.4285 9.14285V10.8571ZM16.5714 15.4286V6.85715C16.5714 5.91037 17.3389 5.14286 18.2857 5.14286C19.2325 5.14286 20 5.91037 20 6.85715L20 13.7112C20 13.7122 20 13.7133 20 13.7143V15.4286L16.5714 15.4286ZM21.1429 15.4285V13.7143C21.1429 13.7135 21.1429 13.7127 21.1429 13.7119C21.1442 12.7662 21.9112 12 22.8571 12C23.8039 12 24.5714 12.7675 24.5714 13.7143C24.5714 14.661 23.8039 15.4285 22.8572 15.4285H21.1429ZM12 25.1429C12 26.0896 12.7675 26.8572 13.7143 26.8572C14.661 26.8572 15.4285 26.0896 15.4285 25.1429L15.4286 16.5714L12 16.5714V25.1429ZM10.8571 16.5714L9.14286 16.5714C8.19608 16.5714 7.42857 17.3389 7.42857 18.2857C7.42857 19.2325 8.19608 20 9.14286 20C10.0896 20 10.8571 19.2325 10.8571 18.2857V16.5714ZM16.5714 22.8571C16.5714 23.8039 17.3389 24.5714 18.2857 24.5714C19.2325 24.5714 20 23.8039 20 22.8571C20 21.9104 19.2325 21.1429 18.2857 21.1429H16.5714L16.5714 22.8571ZM16.5714 20H25.1429C26.0896 20 26.8572 19.2325 26.8572 18.2857C26.8572 17.3389 26.0896 16.5714 25.1429 16.5714L16.5714 16.5714L16.5714 20Z" fill="url(#paint0_angular)"/>
<defs>
<radialGradient id="paint0_angular" cx="0" cy="0" r="1" gradientUnits="userSpaceOnUse" gradientTransform="translate(16 16) rotate(64.7989) scale(18.7883 19.0153)">
<stop offset="0.1875" stop-color="#3399FF" stop-opacity="0.3"/>
<stop offset="0.536458" stop-color="#3399FF"/>
<stop offset="0.698371" stop-color="#3399FF"/>
<stop offset="0.869998" stop-color="#3399FF" stop-opacity="0.1"/>
<stop offset="0.997915" stop-color="#3399FF" stop-opacity="0.1"/>
</radialGradient>
</defs>
</svg>
