<svg width="40" height="40" viewBox="0 0 40 40" fill="none" xmlns="http://www.w3.org/2000/svg">
<path d="M22 32C22 33.1046 21.1046 34 20 34C18.8954 34 18 33.1046 18 32C18 30.8954 18.8954 30 20 30C21.1046 30 22 30.8954 22 32Z" fill="currentColor"/>
<path fill-rule="evenodd" clip-rule="evenodd" d="M15.4164 10.2733C15.3775 10.3128 15.3368 10.3504 15.2945 10.3859C15.2386 10.4328 15.18 10.4761 15.1191 10.5155C14.6494 10.8195 14.0496 10.8883 13.5704 10.5855C12.9824 10.2139 12.8004 9.42803 13.2556 8.90197C13.3735 8.7658 13.4956 8.63354 13.6217 8.50538C13.6508 8.47587 13.6801 8.44659 13.7095 8.41752C14.3101 7.82534 14.999 7.32445 15.755 6.93442C17.0839 6.24879 18.5717 5.93058 20.0647 6.01266C21.5576 6.09474 23.0016 6.57415 24.2474 7.40133C25.4931 8.22851 26.4954 9.37345 27.1507 10.7178C27.806 12.0622 28.0905 13.5572 27.9748 15.0484C27.8591 16.5396 27.3474 17.9728 26.4926 19.1999C25.6378 20.4271 24.4708 21.4036 23.1124 22.0286C22.5631 22.2813 21.9906 22.4729 21.4051 22.6015V26.7357C21.4051 27.4339 20.8392 28 20.1411 28C19.443 28 18.8771 27.4339 18.8771 26.7357V21.6783C18.8771 21.6013 18.884 21.526 18.8971 21.4529C18.9725 20.9128 19.3868 20.5019 19.9003 20.3242C19.9687 20.3005 20.0389 20.281 20.1104 20.2658C20.1643 20.2544 20.219 20.2455 20.274 20.2391C20.8894 20.1685 21.4923 20.0007 22.0598 19.7396C23.0107 19.3021 23.8276 18.6185 24.426 17.7595C25.0243 16.9005 25.3825 15.8973 25.4635 14.8534C25.5445 13.8096 25.3454 12.7631 24.8867 11.822C24.428 10.881 23.7263 10.0795 22.8543 9.50049C21.9823 8.92146 20.9715 8.58588 19.9264 8.52842C18.8813 8.47096 17.8399 8.69371 16.9096 9.17365C16.3545 9.46008 15.851 9.83191 15.4164 10.2733Z" fill="currentColor"/>
<defs>
<linearGradient id="paint0_linear" x1="16.5" y1="28" x2="20.1592" y2="11.81" gradientUnits="userSpaceOnUse">
<stop stop-color="white" stop-opacity="0"/>
<stop offset="0.97699" stop-color="white"/>
</linearGradient>
</defs>
</svg>
