<svg width="23" height="23" viewBox="0 0 23 23" fill="none" xmlns="http://www.w3.org/2000/svg">
<g clip-path="url(#clip0)">
<path fill-rule="evenodd" clip-rule="evenodd" d="M11.3137 3.09876C11.6742 3.09876 11.9665 3.39102 11.9665 3.75154L11.9665 18.5222C11.9665 18.8827 11.6742 19.175 11.3137 19.175C10.9532 19.175 10.6609 18.8827 10.6609 18.5222L10.6609 3.75154C10.6609 3.39102 10.9532 3.09876 11.3137 3.09876Z" fill="#5BB6FA"/>
<path fill-rule="evenodd" clip-rule="evenodd" d="M3.27558 11.137C3.27558 10.7764 3.56784 10.4842 3.92836 10.4842L18.699 10.4842C19.0595 10.4842 19.3518 10.7764 19.3518 11.137C19.3518 11.4975 19.0595 11.7897 18.699 11.7897L3.92836 11.7897C3.56784 11.7897 3.27558 11.4975 3.27558 11.137Z" fill="#5BB6FA"/>
</g>
<defs>
<clipPath id="clip0">
<rect width="16" height="16" fill="white" transform="translate(11.3137) rotate(45)"/>
</clipPath>
</defs>
</svg>
